G04 MADE WITH FRITZING*
G04 WWW.FRITZING.ORG*
G04 DOUBLE SIDED*
G04 HOLES PLATED*
G04 CONTOUR ON CENTER OF CONTOUR VECTOR*
%ASAXBY*%
%FSLAX23Y23*%
%MOIN*%
%OFA0B0*%
%SFA1.0B1.0*%
%ADD10C,0.090000*%
%ADD11C,0.128110*%
%ADD12C,0.092000*%
%ADD13R,0.090000X0.090000*%
%ADD14R,0.092000X0.092000*%
%LNMASK0*%
G90*
G70*
G54D10*
X1500Y2334D03*
X1700Y2334D03*
X1900Y2334D03*
X2100Y2334D03*
X2300Y434D03*
X2100Y434D03*
X1900Y434D03*
X1700Y434D03*
X1500Y434D03*
X1300Y434D03*
G54D11*
X3419Y130D03*
X3400Y2614D03*
X164Y201D03*
X100Y2611D03*
G54D12*
X400Y1334D03*
X400Y1632D03*
X600Y1334D03*
X600Y1632D03*
X3300Y1334D03*
X3300Y1632D03*
X800Y1334D03*
X800Y1632D03*
X3100Y1334D03*
X3100Y1632D03*
X2900Y1334D03*
X2900Y1632D03*
X1200Y1334D03*
X1200Y1632D03*
X2600Y1334D03*
X2600Y1632D03*
X2400Y1334D03*
X2400Y1632D03*
X1600Y1334D03*
X1600Y1632D03*
X2200Y1334D03*
X2200Y1632D03*
X1400Y1334D03*
X1400Y1632D03*
G54D13*
X1500Y2334D03*
X2300Y434D03*
G54D14*
X400Y1333D03*
X600Y1333D03*
X3300Y1333D03*
X800Y1333D03*
X3100Y1333D03*
X2900Y1333D03*
X1200Y1333D03*
X2600Y1333D03*
X2400Y1333D03*
X1600Y1333D03*
X2200Y1333D03*
X1400Y1333D03*
G04 End of Mask0*
M02*