; NON-PLATED HOLES START AT T1
; THROUGH (PLATED) HOLES START AT T100
M48
INCH
T1C0.118110
T100C0.042000
T101C0.040000
%
T1
X001636Y002009
X000999Y026112
X034000Y026142
X034188Y001303
T100
X022000Y013336
X024000Y016316
X024000Y013336
X008000Y016316
X008000Y013336
X031000Y013336
X004000Y013336
X026000Y016316
X029000Y013336
X006000Y016316
X016000Y013336
X014000Y016316
X006000Y013336
X026000Y013336
X031000Y016316
X012000Y016316
X004000Y016316
X016000Y016316
X022000Y016316
X029000Y016316
X033000Y013336
X012000Y013336
X014000Y013336
X033000Y016316
T101
X015000Y004336
X019000Y023336
X021000Y004336
X023000Y004336
X017000Y023336
X015000Y023336
X013000Y004336
X017000Y004336
X021000Y023336
X019000Y004336
T00
M30
