G04 MADE WITH FRITZING*
G04 WWW.FRITZING.ORG*
G04 DOUBLE SIDED*
G04 HOLES PLATED*
G04 CONTOUR ON CENTER OF CONTOUR VECTOR*
%ASAXBY*%
%FSLAX23Y23*%
%MOIN*%
%OFA0B0*%
%SFA1.0B1.0*%
%ADD10C,0.080000*%
%ADD11C,0.082000*%
%ADD12R,0.080000X0.080000*%
%ADD13R,0.082000X0.082000*%
%ADD14C,0.024000*%
%LNCOPPER1*%
G90*
G70*
G54D10*
X1500Y2334D03*
X1700Y2334D03*
X1900Y2334D03*
X2100Y2334D03*
X2300Y434D03*
X2100Y434D03*
X1900Y434D03*
X1700Y434D03*
X1500Y434D03*
X1300Y434D03*
G54D11*
X400Y1334D03*
X400Y1632D03*
X600Y1334D03*
X600Y1632D03*
X800Y1334D03*
X800Y1632D03*
X1200Y1334D03*
X1200Y1632D03*
X1600Y1334D03*
X1600Y1632D03*
X1400Y1334D03*
X1400Y1632D03*
X2200Y1334D03*
X2200Y1632D03*
X2400Y1334D03*
X2400Y1632D03*
X2600Y1334D03*
X2600Y1632D03*
X2900Y1334D03*
X2900Y1632D03*
X3100Y1334D03*
X3100Y1632D03*
X3300Y1334D03*
X3300Y1632D03*
G54D12*
X1500Y2334D03*
X2300Y434D03*
G54D13*
X400Y1333D03*
X600Y1333D03*
X800Y1333D03*
X1200Y1333D03*
X1600Y1333D03*
X1400Y1333D03*
X2200Y1333D03*
X2400Y1333D03*
X2600Y1333D03*
X2900Y1333D03*
X3100Y1333D03*
X3300Y1333D03*
G54D14*
X1799Y2333D02*
X1799Y1634D01*
D02*
X1799Y1634D02*
X2168Y1632D01*
D02*
X1869Y2333D02*
X1799Y2333D01*
D02*
X1301Y2333D02*
X819Y1658D01*
D02*
X1469Y2334D02*
X1301Y2333D01*
D02*
X2498Y1835D02*
X2871Y1646D01*
D02*
X2131Y2334D02*
X2302Y2333D01*
D02*
X2302Y2333D02*
X2498Y1835D01*
D02*
X1632Y1334D02*
X2168Y1334D01*
D02*
X2069Y434D02*
X2000Y435D01*
D02*
X2000Y733D02*
X2000Y1135D01*
D02*
X2000Y435D02*
X2000Y733D01*
D02*
X2000Y1135D02*
X2000Y1333D01*
D02*
X2000Y1333D02*
X2168Y1334D01*
D02*
X1168Y1334D02*
X832Y1334D01*
D02*
X2368Y1632D02*
X2232Y1632D01*
D02*
X3268Y1632D02*
X3132Y1632D01*
D02*
X2868Y1334D02*
X2632Y1334D01*
D02*
X1329Y421D02*
X1452Y368D01*
X1452Y368D02*
X2172Y368D01*
D02*
X2199Y534D02*
X2199Y733D01*
D02*
X2199Y733D02*
X2582Y1307D01*
D02*
X2172Y368D02*
X2199Y534D01*
D02*
X1669Y433D02*
X1599Y433D01*
D02*
X1599Y433D02*
X1599Y1234D01*
D02*
X1500Y1234D02*
X1500Y1434D01*
D02*
X1599Y1234D02*
X1500Y1234D01*
D02*
X1500Y1434D02*
X2268Y1400D01*
X2268Y1400D02*
X2371Y1348D01*
D02*
X428Y1350D02*
X516Y1400D01*
X516Y1400D02*
X1500Y1434D01*
D02*
X618Y1307D02*
X1260Y320D01*
X1260Y320D02*
X2220Y320D01*
X2220Y320D02*
X2282Y408D01*
D02*
X1600Y2234D02*
X1600Y1664D01*
D02*
X1678Y2312D02*
X1600Y2234D01*
D02*
X1568Y1632D02*
X1432Y1632D01*
D02*
X1232Y1632D02*
X1368Y1632D01*
D02*
X768Y1632D02*
X632Y1632D01*
D02*
X432Y1632D02*
X568Y1632D01*
D02*
X2568Y1632D02*
X2432Y1632D01*
D02*
X2932Y1632D02*
X3068Y1632D01*
D02*
X1401Y1033D02*
X1218Y1307D01*
D02*
X1469Y433D02*
X1399Y433D01*
D02*
X1399Y433D02*
X1401Y1033D01*
D02*
X3276Y1312D02*
X2323Y455D01*
G04 End of Copper1*
M02*